<svg width="265" height="102" viewBox="0 0 265 102" fill="none" xmlns="http://www.w3.org/2000/svg">
<rect width="265" height="102" rx="10" fill="#004A8D"/>
<path d="M8.9665 73V28.2H29.4465C32.4758 28.2 35.2278 28.8613 37.7025 30.184C40.2198 31.5067 42.2038 33.3413 43.6545 35.688C45.1478 38.0347 45.8945 40.744 45.8945 43.816C45.8945 46.6747 45.2118 49.256 43.8465 51.56C42.4812 53.8213 40.6892 55.656 38.4705 57.064L42.0545 63.144C42.2678 63.4427 42.5025 63.6773 42.7585 63.848C43.0572 64.0187 43.4412 64.104 43.9105 64.104H47.8785V73H41.6065C39.6865 73 37.9372 72.552 36.3585 71.656C34.7798 70.7173 33.5425 69.5013 32.6465 68.008L27.8465 59.496C27.5478 59.496 27.2278 59.496 26.8865 59.496C26.5878 59.496 26.2678 59.496 25.9265 59.496H19.7185V73H8.9665ZM19.7185 50.6H28.2305C29.4678 50.6 30.6198 50.344 31.6865 49.832C32.7532 49.2773 33.5852 48.5093 34.1825 47.528C34.8225 46.504 35.1425 45.288 35.1425 43.88C35.1425 42.472 34.8225 41.2773 34.1825 40.296C33.5425 39.272 32.6892 38.504 31.6225 37.992C30.5985 37.4373 29.4678 37.16 28.2305 37.16H19.7185V50.6ZM67.5305 73.768C64.1598 73.768 61.1305 73.0213 58.4425 71.528C55.7545 70.0347 53.6212 67.9867 52.0425 65.384C50.5065 62.7813 49.7385 59.8587 49.7385 56.616C49.7385 53.3307 50.5065 50.408 52.0425 47.848C53.6212 45.2453 55.7545 43.1973 58.4425 41.704C61.1305 40.168 64.1598 39.4 67.5305 39.4C70.9012 39.4 73.9092 40.168 76.5545 41.704C79.2425 43.1973 81.3545 45.2453 82.8905 47.848C84.4692 50.408 85.2585 53.3307 85.2585 56.616C85.2585 59.8587 84.4692 62.7813 82.8905 65.384C81.3545 67.9867 79.2425 70.0347 76.5545 71.528C73.8665 73.0213 70.8585 73.768 67.5305 73.768ZM67.5305 65.128C69.1092 65.128 70.4745 64.744 71.6265 63.976C72.7785 63.208 73.6745 62.184 74.3145 60.904C74.9545 59.624 75.2745 58.1733 75.2745 56.552C75.2745 54.9733 74.9545 53.544 74.3145 52.264C73.6745 50.984 72.7785 49.96 71.6265 49.192C70.4745 48.424 69.1092 48.04 67.5305 48.04C65.9518 48.04 64.5652 48.424 63.3705 49.192C62.2185 49.96 61.3225 50.984 60.6825 52.264C60.0425 53.544 59.7225 54.9733 59.7225 56.552C59.7225 58.1733 60.0425 59.624 60.6825 60.904C61.3225 62.184 62.2185 63.208 63.3705 63.976C64.5652 64.744 65.9518 65.128 67.5305 65.128ZM107.406 73.768C104.035 73.768 101.006 73.0213 98.3175 71.528C95.6295 70.0347 93.4962 67.9867 91.9175 65.384C90.3815 62.7813 89.6135 59.8587 89.6135 56.616C89.6135 53.3307 90.3815 50.408 91.9175 47.848C93.4962 45.2453 95.6295 43.1973 98.3175 41.704C101.006 40.168 104.035 39.4 107.406 39.4C110.776 39.4 113.784 40.168 116.43 41.704C119.118 43.1973 121.23 45.2453 122.766 47.848C124.344 50.408 125.134 53.3307 125.134 56.616C125.134 59.8587 124.344 62.7813 122.766 65.384C121.23 67.9867 119.118 70.0347 116.43 71.528C113.742 73.0213 110.734 73.768 107.406 73.768ZM107.406 65.128C108.984 65.128 110.35 64.744 111.502 63.976C112.654 63.208 113.55 62.184 114.19 60.904C114.83 59.624 115.15 58.1733 115.15 56.552C115.15 54.9733 114.83 53.544 114.19 52.264C113.55 50.984 112.654 49.96 111.502 49.192C110.35 48.424 108.984 48.04 107.406 48.04C105.827 48.04 104.44 48.424 103.246 49.192C102.094 49.96 101.198 50.984 100.558 52.264C99.9175 53.544 99.5975 54.9733 99.5975 56.552C99.5975 58.1733 99.9175 59.624 100.558 60.904C101.198 62.184 102.094 63.208 103.246 63.976C104.44 64.744 105.827 65.128 107.406 65.128ZM195.021 73.768C192.12 73.768 189.56 73.0213 187.341 71.528C185.122 70.0347 183.394 68.0293 182.157 65.512C180.92 62.952 180.301 60.072 180.301 56.872C180.301 53.544 181.026 50.5787 182.477 47.976C183.928 45.3307 185.976 43.24 188.621 41.704C191.309 40.168 194.466 39.4 198.093 39.4C201.762 39.4 204.877 40.168 207.437 41.704C210.04 43.1973 212.024 45.2667 213.389 47.912C214.797 50.5147 215.501 53.4373 215.501 56.68V73H205.773V67.752H205.517C204.92 68.904 204.152 69.9493 203.213 70.888C202.274 71.784 201.122 72.488 199.757 73C198.434 73.512 196.856 73.768 195.021 73.768ZM197.965 65.192C199.458 65.192 200.76 64.8293 201.869 64.104C203.021 63.336 203.896 62.2907 204.493 60.968C205.09 59.6453 205.389 58.1733 205.389 56.552C205.389 54.9733 205.09 53.544 204.493 52.264C203.896 50.984 203.021 49.9813 201.869 49.256C200.76 48.488 199.458 48.104 197.965 48.104C196.429 48.104 195.085 48.488 193.933 49.256C192.781 49.9813 191.906 50.984 191.309 52.264C190.712 53.544 190.413 54.9733 190.413 56.552C190.413 58.1733 190.712 59.6453 191.309 60.968C191.906 62.2907 192.781 63.336 193.933 64.104C195.085 64.8293 196.429 65.192 197.965 65.192ZM240.181 39.4C242.954 39.4 245.408 39.848 247.541 40.744C249.717 41.5973 251.552 42.8347 253.045 44.456C254.581 46.0347 255.754 47.912 256.565 50.088C257.376 52.2213 257.781 54.5893 257.781 57.192C257.781 60.4347 257.098 63.3147 255.733 65.832C254.41 68.3067 252.576 70.248 250.229 71.656C247.882 73.064 245.152 73.768 242.037 73.768C240.714 73.768 239.456 73.5973 238.261 73.256C237.109 72.9147 236.042 72.424 235.061 71.784C234.122 71.144 233.333 70.3547 232.693 69.416H232.501V86.888H222.581V57.192C222.581 53.5653 223.306 50.4293 224.757 47.784C226.208 45.1387 228.256 43.0907 230.901 41.64C233.546 40.1467 236.64 39.4 240.181 39.4ZM240.181 47.976C238.645 47.976 237.301 48.36 236.149 49.128C235.04 49.8533 234.186 50.8773 233.589 52.2C232.992 53.48 232.693 54.9307 232.693 56.552C232.693 58.1733 232.992 59.624 233.589 60.904C234.186 62.184 235.04 63.208 236.149 63.976C237.301 64.7013 238.645 65.064 240.181 65.064C241.717 65.064 243.04 64.7013 244.149 63.976C245.258 63.208 246.112 62.184 246.709 60.904C247.349 59.624 247.669 58.1733 247.669 56.552C247.669 54.9307 247.349 53.48 246.709 52.2C246.112 50.8773 245.258 49.8533 244.149 49.128C243.04 48.36 241.717 47.976 240.181 47.976Z" fill="#F7941D"/>
<path d="M163.705 36.4407L163.279 36.225H162.801H162.69H162.424H162.157H161.601H161.379H161.09H160.979H160.503L160.078 36.4394L153.002 40.0098L145.927 36.4394L145.86 36.4057L145.379 36H144.648H144.381H143.826H143.604H143.315H142.837L142.411 36.2157L133.569 40.6924C132.728 41.0729 132.055 41.7193 131.612 42.498C131.17 43.2755 130.965 44.1667 131.005 45.051L131.005 75.5L131.005 75.503C131.006 76.2157 131.165 76.9262 131.48 77.5719L133.278 76.6966L131.48 77.5719C131.794 78.217 132.259 78.7896 132.854 79.2196C133.537 79.7155 134.359 79.9975 135.221 80L135.229 80L135.237 80C135.87 79.9967 136.487 79.8424 137.044 79.5579C137.046 79.5569 137.048 79.5558 137.05 79.5547L144.115 75.9902L151.19 79.5606L151.615 79.775H151.804C152.187 79.906 152.591 79.975 153.002 79.975C153.414 79.975 153.818 79.906 154.2 79.775H154.389L154.814 79.5606L161.89 75.9902L168.955 79.5547C168.957 79.5559 168.959 79.557 168.961 79.5582C169.518 79.8425 170.135 79.9967 170.768 80L170.776 80L170.784 80C171.646 79.9975 172.468 79.7156 173.151 79.2197C173.746 78.7898 174.211 78.2171 174.525 77.5719C174.839 76.9262 174.999 76.2157 175 75.503V75.5L175 45L175 44.9963C174.998 44.178 174.788 43.3629 174.375 42.6466L172.642 43.6452L174.375 42.6466C173.962 41.9294 173.353 41.3253 172.592 40.9407C172.592 40.9405 172.592 40.9404 172.592 40.9403L163.705 36.4407ZM148.337 68.1397V47.6131L148.78 47.8353V68.3619L148.337 68.1397ZM166.556 47.8603V68.3869L166.112 68.1647V47.6381L166.556 47.8603Z" stroke="#F7941D" stroke-width="4"/>
</svg>
